<svg width="1200" height="630" viewBox="0 0 1200 630" xmlns="http://www.w3.org/2000/svg">
<defs>
  <radialGradient id="bg" cx="50%" cy="50%" r="70%">
    <stop offset="0%" stop-color="#0d1220"/>
    <stop offset="100%" stop-color="#05070d"/>
  </radialGradient>
  <radialGradient id="glow1" cx="50%" cy="50%" r="50%">
    <stop offset="0%" stop-color="#ff6a00" stop-opacity="0.25"/>
    <stop offset="100%" stop-color="#ff6a00" stop-opacity="0"/>
  </radialGradient>
  <radialGradient id="glow2" cx="50%" cy="50%" r="50%">
    <stop offset="0%" stop-color="#00ff88" stop-opacity="0.12"/>
    <stop offset="100%" stop-color="#00ff88" stop-opacity="0"/>
  </radialGradient>
</defs>

<!-- Background -->
<rect width="1200" height="630" fill="url(#bg)"/>
<ellipse cx="600" cy="315" rx="520" ry="280" fill="url(#glow1)"/>
<ellipse cx="200" cy="500" rx="300" ry="200" fill="url(#glow2)"/>

<!-- Grid -->
<g stroke="#ff6a00" stroke-opacity="0.06" stroke-width="1">
  <line x1="0" y1="63" x2="1200" y2="63"/><line x1="0" y1="126" x2="1200" y2="126"/>
  <line x1="0" y1="189" x2="1200" y2="189"/><line x1="0" y1="252" x2="1200" y2="252"/>
  <line x1="0" y1="315" x2="1200" y2="315"/><line x1="0" y1="378" x2="1200" y2="378"/>
  <line x1="0" y1="441" x2="1200" y2="441"/><line x1="0" y1="504" x2="1200" y2="504"/>
  <line x1="0" y1="567" x2="1200" y2="567"/>
  <line x1="80" y1="0" x2="80" y2="630"/><line x1="160" y1="0" x2="160" y2="630"/>
  <line x1="240" y1="0" x2="240" y2="630"/><line x1="320" y1="0" x2="320" y2="630"/>
  <line x1="400" y1="0" x2="400" y2="630"/><line x1="480" y1="0" x2="480" y2="630"/>
  <line x1="560" y1="0" x2="560" y2="630"/><line x1="640" y1="0" x2="640" y2="630"/>
  <line x1="720" y1="0" x2="720" y2="630"/><line x1="800" y1="0" x2="800" y2="630"/>
  <line x1="880" y1="0" x2="880" y2="630"/><line x1="960" y1="0" x2="960" y2="630"/>
  <line x1="1040" y1="0" x2="1040" y2="630"/><line x1="1120" y1="0" x2="1120" y2="630"/>
</g>

<!-- Stars white -->
<g fill="#ffffff">
  <circle cx="80"  cy="50"  r="1.5" fill-opacity=".7"/>
  <circle cx="220" cy="90"  r="1"   fill-opacity=".5"/>
  <circle cx="350" cy="30"  r="2"   fill-opacity=".6"/>
  <circle cx="500" cy="70"  r="1"   fill-opacity=".4"/>
  <circle cx="700" cy="45"  r="1.5" fill-opacity=".7"/>
  <circle cx="850" cy="25"  r="1"   fill-opacity=".5"/>
  <circle cx="1000" cy="60" r="2"   fill-opacity=".6"/>
  <circle cx="1150" cy="40" r="1"   fill-opacity=".4"/>
  <circle cx="130"  cy="580" r="1.5" fill-opacity=".4"/>
  <circle cx="950"  cy="590" r="1"   fill-opacity=".5"/>
  <circle cx="1100" cy="570" r="1.5" fill-opacity=".4"/>
  <circle cx="60"   cy="300" r="1"   fill-opacity=".3"/>
  <circle cx="1160" cy="200" r="1.5" fill-opacity=".4"/>
</g>
<g fill="#00ff88">
  <circle cx="160" cy="120" r="1.5" fill-opacity=".5"/>
  <circle cx="920" cy="80"  r="1.5" fill-opacity=".4"/>
  <circle cx="1060" cy="550" r="1"  fill-opacity=".5"/>
  <circle cx="290"  cy="560" r="1.5" fill-opacity=".4"/>
</g>
<g fill="#ff6a00">
  <circle cx="440" cy="110" r="1"   fill-opacity=".4"/>
  <circle cx="760" cy="85"  r="1.5" fill-opacity=".3"/>
  <circle cx="1130" cy="400" r="1"  fill-opacity=".3"/>
</g>

<!-- Player character left -->
<g transform="translate(155,270)" opacity="0.5">
  <rect x="-6" y="9"  width="14" height="30" rx="3" fill="#cc4400"/>
  <rect x="2"  y="9"  width="14" height="30" rx="3" fill="#cc4400"/>
  <rect x="-8" y="18" width="7"  height="5"  rx="1" fill="#1a1a1a"/>
  <rect x="1"  y="18" width="7"  height="5"  rx="1" fill="#1a1a1a"/>
  <rect x="-27" y="-5" width="18" height="45" rx="4" fill="#ff6a00"/>
  <rect x="-19" y="-2" width="12" height="18" rx="2" fill="#ffffff" fill-opacity=".12"/>
  <rect x="-34" y="-3" width="16" height="28" rx="3" fill="#cc4400"/>
  <rect x="18"  y="-3" width="16" height="28" rx="3" fill="#cc4400"/>
  <rect x="-8"  y="-7" width="6"  height="4"  rx="1" fill="#222"/>
  <rect x="1"   y="-7" width="6"  height="4"  rx="1" fill="#222"/>
  <rect x="-22" y="-50" width="44" height="46" rx="5" fill="#ff6a00"/>
  <rect x="-16" y="-44" width="32" height="14" rx="3" fill="#00aaff"/>
  <rect x="-12" y="-42" width="9"  height="6"  fill="#ffffff" fill-opacity=".5"/>
  <rect x="-24" y="-56" width="48" height="12" rx="3" fill="#cc4400"/>
  <rect x="-20" y="-58" width="6"  height="6"  rx="1" fill="#aa3300"/>
  <rect x="-12" y="-58" width="6"  height="6"  rx="1" fill="#aa3300"/>
  <rect x="-4"  y="-58" width="6"  height="6"  rx="1" fill="#aa3300"/>
  <!-- Weapon -->
  <rect x="34"  y="2"  width="70" height="12" rx="3" fill="#777"/>
  <rect x="94"  y="0"  width="22" height="6"  rx="1" fill="#aaa"/>
  <circle cx="118" cy="8" r="5" fill="#ff6a00"/>
</g>

<!-- Enemy robot right -->
<g transform="translate(1045,300)" opacity="0.4">
  <rect x="-14" y="24"  width="12" height="26" rx="3" fill="#005599"/>
  <rect x="2"   y="24"  width="12" height="26" rx="3" fill="#005599"/>
  <rect x="-8"  y="30"  width="5"  height="4"  rx="1" fill="#003366"/>
  <rect x="3"   y="30"  width="5"  height="4"  rx="1" fill="#003366"/>
  <rect x="-22" y="-12" width="44" height="38" rx="5" fill="#0077cc"/>
  <rect x="-16" y="-8"  width="32" height="14" rx="2" fill="#ffffff" fill-opacity=".08"/>
  <rect x="-30" y="-8"  width="14" height="26" rx="3" fill="#005599"/>
  <rect x="16"  y="-8"  width="14" height="26" rx="3" fill="#005599"/>
  <rect x="-14" y="-4"  width="5"  height="4"  rx="1" fill="#003366"/>
  <rect x="9"   y="-4"  width="5"  height="4"  rx="1" fill="#003366"/>
  <rect x="-20" y="-50" width="40" height="40" rx="5" fill="#0066bb"/>
  <circle cx="-6" cy="-30" r="8"  fill="#ffffff" fill-opacity=".85"/>
  <circle cx="6"  cy="-30" r="8"  fill="#ffffff" fill-opacity=".85"/>
  <circle cx="-6" cy="-30" r="3"  fill="#ff2244"/>
  <circle cx="6"  cy="-30" r="3"  fill="#ff2244"/>
  <line x1="0" y1="-50" x2="0" y2="-60" stroke="#ffff00" stroke-width="2"/>
  <circle cx="0" cy="-63" r="4" fill="#ffff00"/>
  <!-- Claws -->
  <rect x="-32" y="12" width="4" height="3" fill="#333"/>
  <rect x="-32" y="16" width="5" height="3" fill="#333"/>
  <rect x="23"  y="12" width="4" height="3" fill="#333"/>
  <rect x="23"  y="16" width="5" height="3" fill="#333"/>
</g>

<!-- Borders -->
<rect x="0"    y="0"   width="1200" height="4" fill="#ff6a00" fill-opacity=".9"/>
<rect x="0"    y="626" width="1200" height="4" fill="#ff6a00" fill-opacity=".5"/>
<rect x="0"    y="0"   width="4"   height="630" fill="#ff6a00" fill-opacity=".6"/>
<rect x="1196" y="0"   width="4"   height="630" fill="#ff6a00" fill-opacity=".6"/>

<!-- Corner accents -->
<rect x="0"    y="0"   width="70" height="4" fill="#ff6a00"/>
<rect x="0"    y="0"   width="4"  height="70" fill="#ff6a00"/>
<rect x="1130" y="0"   width="70" height="4" fill="#ff6a00"/>
<rect x="1196" y="0"   width="4"  height="70" fill="#ff6a00"/>
<rect x="0"    y="626" width="70" height="4" fill="#ff6a00"/>
<rect x="0"    y="560" width="4"  height="70" fill="#ff6a00"/>
<rect x="1130" y="626" width="70" height="4" fill="#ff6a00"/>
<rect x="1196" y="560" width="4"  height="70" fill="#ff6a00"/>

<!-- Sword icon -->
<g transform="translate(600,195)">
  <rect x="-3"  y="-32" width="6"  height="64" rx="3" fill="#ff6a00"/>
  <polygon points="0,-42 -7,-30 7,-30" fill="#ff6a00"/>
  <rect x="-18" y="-5"  width="36" height="8"  rx="4" fill="#ff6a00"/>
</g>

<!-- Shadow text (depth) -->
<text x="604" y="294"
  font-family="'Orbitron', 'Courier New', monospace"
  font-size="138" font-weight="900" letter-spacing="28"
  text-anchor="middle" fill="#ff6a00" fill-opacity="0.08">IRON FALL</text>

<!-- Main title -->
<text x="600" y="290"
  font-family="'Orbitron', 'Courier New', monospace"
  font-size="138" font-weight="900" letter-spacing="28"
  text-anchor="middle" fill="#ff6a00">IRON FALL</text>

<!-- Divider line -->
<line x1="280" y1="318" x2="920" y2="318" stroke="#ff6a00" stroke-opacity=".3" stroke-width="1.5"/>

<!-- Subtitle -->
<text x="600" y="358"
  font-family="'Orbitron', 'Courier New', monospace"
  font-size="24" font-weight="700" letter-spacing="16"
  text-anchor="middle" fill="#e8eaf0" fill-opacity=".65">LAST SOLDIER STANDING</text>

<!-- Feature pills -->
<!-- Pill 1: INFINITE WAVES -->
<rect x="90"  y="400" width="220" height="38" rx="19" fill="#ff6a00" fill-opacity=".12" stroke="#ff6a00" stroke-opacity=".4" stroke-width="1.2"/>
<text x="200" y="424"
  font-family="'Orbitron','Courier New',monospace"
  font-size="13" font-weight="700" letter-spacing="1"
  text-anchor="middle" fill="#ff6a00">INFINITE WAVES</text>

<!-- Pill 2: GLOBAL LEADERBOARD -->
<rect x="330" y="400" width="240" height="38" rx="19" fill="#00ff88" fill-opacity=".08" stroke="#00ff88" stroke-opacity=".35" stroke-width="1.2"/>
<text x="450" y="424"
  font-family="'Orbitron','Courier New',monospace"
  font-size="13" font-weight="700" letter-spacing="1"
  text-anchor="middle" fill="#00ff88">GLOBAL LEADERBOARD</text>

<!-- Pill 3: 200 SKINS -->
<rect x="590" y="400" width="190" height="38" rx="19" fill="#aa44ff" fill-opacity=".1" stroke="#aa44ff" stroke-opacity=".35" stroke-width="1.2"/>
<text x="685" y="424"
  font-family="'Orbitron','Courier New',monospace"
  font-size="13" font-weight="700" letter-spacing="1"
  text-anchor="middle" fill="#cc88ff">200 SKINS</text>

<!-- Pill 4: ACHIEVEMENTS -->
<rect x="800" y="400" width="220" height="38" rx="19" fill="#ffd700" fill-opacity=".08" stroke="#ffd700" stroke-opacity=".35" stroke-width="1.2"/>
<text x="910" y="424"
  font-family="'Orbitron','Courier New',monospace"
  font-size="13" font-weight="700" letter-spacing="1"
  text-anchor="middle" fill="#ffd700">ACHIEVEMENTS</text>

<!-- Bullet hits decoration -->
<circle cx="260"  cy="130" r="3" fill="#ff6a00" fill-opacity=".4"/>
<circle cx="258"  cy="130" r="6" fill="none" stroke="#ff6a00" stroke-opacity=".2" stroke-width="1"/>
<circle cx="940"  cy="490" r="3" fill="#00ff88" fill-opacity=".4"/>
<circle cx="940"  cy="490" r="7" fill="none" stroke="#00ff88" stroke-opacity=".2" stroke-width="1"/>
<circle cx="1130" cy="160" r="2" fill="#ff6a00" fill-opacity=".3"/>
<circle cx="1130" cy="160" r="5" fill="none" stroke="#ff6a00" stroke-opacity=".15" stroke-width="1"/>

<!-- URL bottom -->
<text x="600" y="582"
  font-family="'Orbitron','Courier New',monospace"
  font-size="14" font-weight="700" letter-spacing="8"
  text-anchor="middle" fill="#e8eaf0" fill-opacity=".22">ironfall.vercel.app</text>
</svg>
